<svg xmlns="http://www.w3.org/2000/svg" version="1.1" xmlns:xlink="http://www.w3.org/1999/xlink" width="512" height="512" x="0" y="0" viewBox="0 0 800 800" style="enable-background:new 0 0 512 512" xml:space="preserve" class=""><g><path fill="#666a55" d="M400 758.3c-86.8 0-168.4-33.8-229.8-95.2-61.4-61.3-95.2-143-95.2-229.8s33.8-168.4 95.2-229.8 143-95.2 229.8-95.2 168.4 33.8 229.8 95.2 95.2 143 95.2 229.8-33.8 168.4-95.2 229.8-143 95.2-229.8 95.2zm0-600c-151.6 0-275 123.4-275 275s123.4 275 275 275 275-123.4 275-275-123.4-275-275-275z" opacity="1" data-original="#8e93a6" class=""></path><g fill="#1c274c"><path d="M483.3 541.7c-6.4 0-12.8-2.4-17.7-7.3L382.3 451c-4.7-4.7-7.3-11-7.3-17.7V300c0-13.8 11.2-25 25-25s25 11.2 25 25v123l76 76c9.8 9.8 9.8 25.6 0 35.4-4.9 4.8-11.3 7.3-17.7 7.3zM116.7 175c-8.3 0-16.5-4.2-21.2-11.8-7.3-11.7-3.8-27.1 8-34.4l133.3-83.3c11.7-7.3 27.1-3.8 34.5 8 7.3 11.7 3.8 27.1-8 34.4L130 171.2c-4.2 2.6-8.8 3.8-13.3 3.8zM683.3 175c-4.5 0-9.1-1.2-13.2-3.8L536.8 87.9c-11.7-7.3-15.3-22.7-8-34.4s22.7-15.3 34.5-8l133.3 83.3c11.7 7.3 15.3 22.7 7.9 34.4-4.7 7.6-12.9 11.8-21.2 11.8z" fill="#f29a1e" opacity="1" data-original="#1c274c" class=""></path></g></g></svg>