<svg xmlns="http://www.w3.org/2000/svg" version="1.1" xmlns:xlink="http://www.w3.org/1999/xlink" width="512" height="512" x="0" y="0" viewBox="0 0 512 512" style="enable-background:new 0 0 512 512" xml:space="preserve" class=""><g><path fill="#666a55" d="M256.01 305.77c52.01 0 94.32-42.31 94.32-94.32s-42.31-94.32-94.32-94.32-94.32 42.31-94.32 94.32 42.31 94.32 94.32 94.32zm0-150.63c31.06 0 56.32 25.27 56.32 56.32s-25.27 56.32-56.32 56.32-56.32-25.27-56.32-56.32 25.27-56.32 56.32-56.32z" opacity="1" data-original="#969696"></path><path d="M115.63 400.32c38.79 49.76 87.74 92.32 124.71 108.4 5.01 2.18 10.39 3.27 15.77 3.27s10.76-1.09 15.77-3.27c36.94-16.08 85.85-58.64 124.6-108.41 22.25-28.57 39.96-57.85 52.65-87.02 14.8-34.01 22.31-67.01 22.31-98.06 0-57.49-22.39-111.54-63.04-152.19S313.71 0 256.22 0h-.42c-57.49 0-111.54 22.39-152.19 63.04s-63.04 94.7-63.04 152.19c0 31.06 7.52 64.06 22.34 98.07 12.71 29.17 30.45 58.44 52.73 87.02zM255.8 38h.42c97.73 0 177.23 79.51 177.23 177.23 0 48.85-23.77 106.29-66.95 161.74-39.75 51.05-84.77 86.02-109.79 96.92-.37.16-.84.16-1.21 0-35.72-15.55-82.01-61.14-109.9-96.92-43.23-55.45-67.04-112.89-67.04-161.73 0-97.73 79.51-177.23 177.23-177.23z" fill="#f29a1e" opacity="1" data-original="#000000" class=""></path></g></svg>