<svg xmlns="http://www.w3.org/2000/svg" version="1.1" xmlns:xlink="http://www.w3.org/1999/xlink" width="512" height="512" x="0" y="0" viewBox="0 0 24 24" style="enable-background:new 0 0 512 512" xml:space="preserve" class=""><g><g fill-rule="evenodd" clip-rule="evenodd"><path fill="#ffffff" d="M18.627 12.554a2.271 2.271 0 0 1 2.27 0c.262.151.497.386.77.66l.06.06.06.06c.273.272.508.507.659.768a2.27 2.27 0 0 1 0 2.271c-.151.262-.386.496-.66.77l-.06.059-3.307 3.308c-.466.465-1.028.682-1.532.811a9.541 9.541 0 0 1-.856.17c-.19.033-.36.062-.526.098l-.045.01c-.306.065-.612.13-.865.147-.28.018-.684-.01-1.007-.334-.324-.323-.352-.728-.334-1.007.016-.253.082-.56.147-.865l.01-.045c.036-.167.065-.337.097-.526l.02-.12c.04-.23.086-.484.15-.736.13-.504.347-1.066.812-1.532l3.308-3.308.06-.06c.273-.273.507-.508.769-.659zm1.52 1.3a.77.77 0 0 0-.77 0c-.066.038-.15.113-.518.48l-3.308 3.308c-.196.196-.322.463-.419.843a8.09 8.09 0 0 0-.125.619l-.019.11c-.032.189-.068.395-.11.595-.034.156-.061.284-.082.395.11-.021.239-.048.395-.082.2-.043.406-.078.596-.11l.11-.019c.225-.039.428-.076.619-.125.38-.097.647-.223.842-.419l3.308-3.308c.367-.367.443-.452.48-.518a.77.77 0 0 0 0-.77c-.037-.067-.113-.151-.48-.519s-.452-.442-.518-.48z" opacity="1" data-original="#bbbbbb" class=""></path><g fill="#111"><path d="M8.543 10.07 1.63 6.152l.74-1.306 6.913 3.917c1.255.712 2.017.986 2.717.986s1.462-.274 2.717-.986l6.913-3.917.74 1.306-6.913 3.916c-1.294.733-2.345 1.181-3.457 1.181s-2.163-.448-3.457-1.18z" fill="#ffffff" opacity="1" data-original="#111111" class=""></path><path d="M14.89 3.786a114.414 114.414 0 0 0-5.768 0c-1.598.04-2.714.07-3.576.22-.828.145-1.344.389-1.769.815-.428.429-.668.939-.807 1.743-.146.84-.171 1.924-.204 3.48-.021.976-.021 1.946 0 2.921.033 1.557.058 2.64.204 3.48.14.805.38 1.315.807 1.744.425.426.94.67 1.769.814.862.15 1.978.18 3.576.22.465.012.929.021 1.393.027a.75.75 0 1 1-.02 1.5c-.47-.006-.94-.015-1.411-.027l-.058-.002c-1.526-.038-2.754-.069-3.737-.24-1.03-.18-1.868-.523-2.575-1.233-.704-.707-1.046-1.532-1.222-2.546-.168-.965-.193-2.162-.225-3.646l-.001-.059a69.86 69.86 0 0 1 0-2.985l.001-.058c.032-1.484.057-2.682.225-3.647.176-1.013.518-1.838 1.222-2.545.707-.71 1.545-1.054 2.575-1.233.983-.172 2.211-.202 3.737-.24l.058-.002c1.954-.05 3.89-.05 5.843 0l.058.001c1.526.039 2.754.07 3.737.24 1.03.18 1.868.524 2.575 1.234.704.707 1.046 1.532 1.222 2.545.168.965.193 2.163.225 3.647l.001.058a.75.75 0 0 1-1.5.032c-.033-1.556-.058-2.64-.204-3.48-.14-.804-.38-1.314-.807-1.743-.425-.426-.94-.67-1.769-.814-.862-.15-1.978-.18-3.575-.22z" fill="#ffffff" opacity="1" data-original="#111111" class=""></path></g></g></g></svg>