<svg xmlns="http://www.w3.org/2000/svg" version="1.1" xmlns:xlink="http://www.w3.org/1999/xlink" width="512" height="512" x="0" y="0" viewBox="0 0 24 24" style="enable-background:new 0 0 512 512" xml:space="preserve" class=""><g><path fill="#f29a1e" d="M21.251 9.066a.75.75 0 0 1-.958-.456 6.676 6.676 0 0 0-5.396-4.388.75.75 0 0 1 .206-1.486 8.17 8.17 0 0 1 6.604 5.372.75.75 0 0 1-.456.958zm-6.143-3.409a.75.75 0 1 0-.217 1.485c1.171.17 2.153.98 2.563 2.113a.75.75 0 1 0 1.41-.51 4.73 4.73 0 0 0-3.757-3.087z" opacity="1" data-original="#549bff" class=""></path><path fill="#646853" d="M15.879 21.356a4.785 4.785 0 0 1-2.669-.811 35.388 35.388 0 0 1-9.744-9.744c-1.269-1.894-1.027-4.432.575-6.033l1.323-1.323c1.038-1.039 2.851-1.039 3.889 0l1.866 1.866c.573.572.863 1.364.796 2.171s-.483 1.541-1.143 2.011a1.017 1.017 0 0 0-.425.728c-.032.299.062.586.263.81a34.379 34.379 0 0 0 2.369 2.369c.223.202.51.295.81.264a1.02 1.02 0 0 0 .729-.426 2.748 2.748 0 0 1 4.182-.346l1.866 1.866c1.108 1.108 1.024 2.864-.195 4.084l-1.129 1.129a4.747 4.747 0 0 1-3.363 1.385zM7.308 4.14c-.334 0-.647.13-.884.366L5.101 5.829c-1.097 1.097-1.26 2.837-.389 4.138a33.899 33.899 0 0 0 9.333 9.333 3.28 3.28 0 0 0 4.137-.389l1.129-1.129c.635-.635.715-1.442.195-1.963l-1.866-1.866a1.248 1.248 0 0 0-1.901.158 2.533 2.533 0 0 1-3.766.401 35.643 35.643 0 0 1-2.474-2.474A2.533 2.533 0 0 1 9.9 8.273a1.25 1.25 0 0 0 .158-1.901L8.192 4.506a1.242 1.242 0 0 0-.884-.366z" opacity="1" data-original="#112d55" class=""></path></g></svg>