<svg id="Layer_1" enable-background="new 0 0 1000 1000" height="1000" viewBox="0 0 1000 1000" width="1000" xmlns="http://www.w3.org/2000/svg" xmlns:xlink="http://www.w3.org/1999/xlink"><clipPath id="SVGID_2_"><circle id="SVGID_1_" cx="499.748" cy="498.498" r="498.498"/></clipPath><clipPath id="SVGID_4_"><path id="SVGID_3_" d="m289.119 288.721h421.256v423.341h-421.256z"/></clipPath><clipPath id="SVGID_6_"><path id="SVGID_5_" d="m709.96 500.604c0 55.742-22.149 109.217-61.569 148.635-39.428 39.428-92.891 61.567-148.644 61.567-55.751 0-109.216-22.14-148.642-61.567-39.421-39.418-61.57-92.893-61.57-148.635 0-55.754 22.149-109.224 61.57-148.645 39.426-39.418 92.891-61.568 148.642-61.568 55.753 0 109.216 22.15 148.644 61.568 39.42 39.421 61.569 92.892 61.569 148.645z"/></clipPath><clipPath id="SVGID_8_"><path id="SVGID_7_" d="m-100.855 409.676h992.663v513.016h-992.663z"/></clipPath><clipPath id="SVGID_10_"><path id="SVGID_9_" d="m564.395 453.47h27.111v27.111h-27.111z"/></clipPath><clipPath id="SVGID_12_"><path id="SVGID_11_" d="m578.578 463.474-1.368 3.145 8.259 3.592 1.369-3.143zm-13.629 8.732 7.983-18.353 16.528 7.186-7.983 18.353z"/></clipPath><clipPath id="SVGID_14_"><path id="SVGID_13_" d="m566.48 455.556h20.855v22.939h-20.855z"/></clipPath><g><g><path clip-path="url(#SVGID_2_)" d="m-215.397 0h1430.289v1001.201h-1430.289z" fill="#0a9c49"/><path clip-path="url(#SVGID_2_)" d="m1.25 500.604 498.497 318.311 498.499-318.311-498.499-318.321z" fill="#fddf00"/><path clip-path="url(#SVGID_2_)" d="m709.96 500.604c0 55.742-22.149 109.217-61.569 148.635-39.428 39.428-92.891 61.567-148.644 61.567-55.751 0-109.216-22.14-148.642-61.567-39.421-39.418-61.57-92.893-61.57-148.635 0-55.754 22.149-109.224 61.57-148.645 39.426-39.418 92.891-61.568 148.642-61.568 55.753 0 109.216 22.15 148.644 61.568 39.42 39.421 61.569 92.892 61.569 148.645z" fill="#253370"/><g clip-path="url(#SVGID_2_)"><g clip-path="url(#SVGID_4_)"><g clip-path="url(#SVGID_6_)" enable-background="new"><g><path clip-path="url(#SVGID_8_)" d="m-130.881 921.021c0-135.399 53.782-265.25 149.523-360.981 95.742-95.744 225.593-149.535 360.981-149.535 135.399 0 265.249 53.791 360.991 149.535 95.743 95.731 149.524 225.582 149.524 360.981h-30.028c0-127.432-50.621-249.642-140.733-339.754-90.104-90.105-212.314-140.725-339.754-140.725-127.43 0-249.641 50.619-339.745 140.725-90.114 90.113-140.733 212.323-140.733 339.754z" fill="#fff"/></g></g></g></g><path clip-path="url(#SVGID_2_)" clip-rule="evenodd" d="m320.009 435.466c2.901-.358 4.905-3.445 4.481-6.892-.424-3.453-3.112-5.954-6.02-5.604-2.9.359-4.904 3.445-4.481 6.893.424 3.454 3.121 5.954 6.02 5.603m.447 3.692c4.945-.611 8.401-5.547 7.724-11.038-.667-5.482-5.22-9.443-10.158-8.841-4.936.612-8.398 5.549-7.722 11.039.675 5.483 5.221 9.443 10.156 8.84" fill="#0a9c49" fill-rule="evenodd"/><path clip-path="url(#SVGID_2_)" clip-rule="evenodd" d="m339.707 425.961 7.699-.538c1.417-.098 2.493-1.329 2.387-2.746-.098-1.417-1.328-2.493-2.747-2.394l-7.697.546zm-2.932 11.389 3.706-.261-.514-7.421 7.984-.555c3.47-.245 6.085-3.25 5.841-6.719-.244-3.464-3.251-6.078-6.722-5.833l-11.406.799z" fill="#0a9c49" fill-rule="evenodd"/><path clip-path="url(#SVGID_2_)" d="m353.751 436.159c-.203-2.851-.643-9.132-4.92-8.83l-5.417.382c6.272-.44 6.712 5.833 6.917 8.683" fill="#0a9c49"/><path clip-path="url(#SVGID_2_)" clip-rule="evenodd" d="m365.8 431.979 5.433-.089c2.997-.057 5.393-2.525 5.337-5.531l-.026-1.71c-.056-3.006-2.533-5.392-5.53-5.345l-5.435.098zm-3.649 3.79 9.432-.163c4.741-.09 8.513-3.992 8.432-8.734l-.05-2.86c-.087-4.74-3.992-8.512-8.731-8.431l-9.432.171z" fill="#0a9c49" fill-rule="evenodd"/><path clip-path="url(#SVGID_2_)" d="m387.566 435.517 18.011.626.122-3.714-14.573-.506.179-5.149 11.436.401.115-3.43-11.427-.398.137-4 13.718.479.131-3.713-17.148-.603z" fill="#0a9c49"/><path clip-path="url(#SVGID_2_)" d="m412.967 436.599 3.42.302 1.191-13.678 2.794 14.021 3.134.277 5.182-13.328-1.19 13.678 3.414.3 1.752-19.949-4.993-.431-5.182 13.325-2.795-14.027-4.984-.431z" fill="#0a9c49"/><path clip-path="url(#SVGID_2_)" d="m454.446 441.275 14.793 2.541.586-3.38-11.42-1.962.774-4.507 9.303 1.597.587-3.38-9.303-1.605.529-3.096 11.064 1.898.585-3.381-14.452-2.482z" fill="#0a9c49"/><path clip-path="url(#SVGID_2_)" clip-rule="evenodd" d="m498.851 438.872 7.479 1.939c1.375.351 2.777-.473 3.137-1.849.356-1.376-.474-2.777-1.851-3.137l-7.478-1.93zm-6.387 9.873 3.592.93 1.866-7.201 7.756 2.002c3.363.872 6.793-1.146 7.664-4.512.872-3.365-1.156-6.793-4.521-7.665l-11.071-2.868z" fill="#0a9c49" fill-rule="evenodd"/><path clip-path="url(#SVGID_2_)" clip-rule="evenodd" d="m523.925 445.778 7.365 2.325c1.353.423 2.803-.327 3.225-1.688.432-1.351-.324-2.802-1.678-3.226l-7.364-2.321zm-6.899 9.516 3.543 1.116 2.24-7.086 7.632 2.401c3.315 1.052 6.852-.79 7.894-4.105 1.044-3.316-.797-6.851-4.105-7.894l-10.915-3.437z" fill="#0a9c49" fill-rule="evenodd"/><path clip-path="url(#SVGID_2_)" d="m533.252 460.411c.864-2.729 2.754-8.724-1.335-10.02l-5.189-1.63c6.004 1.891 4.113 7.894 3.251 10.624" fill="#0a9c49"/><path clip-path="url(#SVGID_2_)" clip-rule="evenodd" d="m550.945 462.798c2.737 1.027 5.947-.782 7.162-4.041 1.222-3.258-.018-6.722-2.753-7.747-2.738-1.027-5.939.79-7.154 4.042-1.221 3.256.009 6.718 2.745 7.746m-1.294 3.487c4.659 1.734 10.003-1.043 11.942-6.226 1.938-5.179-.277-10.793-4.937-12.528-4.66-1.743-10.005 1.043-11.942 6.216-1.938 5.181.277 10.795 4.937 12.538" fill="#0a9c49" fill-rule="evenodd"/><g clip-path="url(#SVGID_2_)"><g clip-path="url(#SVGID_10_)"><g clip-path="url(#SVGID_12_)" enable-background="new"><g><path clip-path="url(#SVGID_14_)" clip-rule="evenodd" d="m574.699 472.393c2.681 1.167 5.973-.471 7.356-3.665 1.386-3.186.344-6.712-2.338-7.878-2.679-1.166-5.979.474-7.363 3.658-1.384 3.194-.333 6.721 2.345 7.885m-1.48 3.406c4.561 1.987 10.043-.513 12.25-5.588 2.2-5.066.294-10.787-4.267-12.766-4.571-1.987-10.053.514-12.262 5.581-2.199 5.075-.292 10.794 4.279 12.773" fill="#0a9c49" fill-rule="evenodd"/></g></g></g></g><path clip-path="url(#SVGID_2_)" d="m577.638 468.581h7.576v2.86h-7.576z" fill="#0a9c49" transform="matrix(-.917 -.399 .399 -.917 927.036 1132.973)"/><path clip-path="url(#SVGID_2_)" d="m580.732 469.225h2.86v10.012h-2.86z" fill="#0a9c49" transform="matrix(-.917 -.399 .399 -.917 926.726 1141.376)"/><path clip-path="url(#SVGID_2_)" clip-rule="evenodd" d="m596.492 474.202 6.908 3.447c1.278.635 2.817.113 3.453-1.158.636-1.27.122-2.82-1.156-3.453l-6.908-3.448zm-8.302 8.327 3.323 1.653 3.316-6.657 7.168 3.576c3.112 1.548 6.892.286 8.44-2.826 1.548-3.104.284-6.884-2.827-8.44l-10.232-5.1z" fill="#0a9c49" fill-rule="evenodd"/><path clip-path="url(#SVGID_2_)" d="m603.416 490.12c1.278-2.565 4.081-8.194.244-10.108l-4.862-2.42c5.627 2.802 2.826 8.431 1.547 10.998" fill="#0a9c49"/><path clip-path="url(#SVGID_2_)" d="m610.854 494.038 15.68 8.871 1.833-3.234-12.699-7.184 2.533-4.482 9.963 5.639 1.687-2.991-9.956-5.628 1.972-3.487 11.951 6.761 1.824-3.234-14.933-8.455z" fill="#0a9c49"/><path clip-path="url(#SVGID_2_)" d="m640.058 503.838c-1.075 1.695.017 3.568 2.428 5.11 2.41 1.536 4.056 1.48 4.748.396 2.192-3.437-10.467-8.448-6.565-14.444 3.364-5.147 9.124-1.14 11.291.245 2.175 1.378 5.653 4.961 2.949 9.083l-3.683-2.347c1.156-1.807-.113-3.55-2.044-4.78-1.866-1.189-3.39-1.727-4.497.017-1.865 2.794 10.541 8.072 6.736 14.043-2.811 4.398-7.69 2.479-10.94.406-2.776-1.767-6.924-5.938-4.219-10.15z" fill="#0a9c49"/><path clip-path="url(#SVGID_2_)" d="m661.538 518.045c-1.164 1.628-.17 3.56 2.151 5.222 2.33 1.663 3.976 1.694 4.724.644 2.372-3.316-10.011-8.985-5.799-14.761 3.625-4.97 9.165-.668 11.258.832 2.103 1.489 5.394 5.245 2.469 9.224l-3.553-2.535c1.247-1.745.074-3.546-1.791-4.873-1.801-1.286-3.292-1.915-4.497-.229-2.005 2.697 10.109 8.62 5.995 14.379-3.03 4.253-7.804 2.077-10.948-.163-2.671-1.913-6.599-6.289-3.674-10.361z" fill="#0a9c49"/><path clip-path="url(#SVGID_2_)" clip-rule="evenodd" d="m684.161 538.166c2.289 1.817 5.897 1.092 8.063-1.63 2.159-2.721 2.061-6.402-.227-8.218-2.291-1.815-5.898-1.094-8.058 1.628-2.165 2.723-2.059 6.404.222 8.22m-2.313 2.908c3.895 3.096 9.841 2.103 13.286-2.225 3.438-4.325 3.071-10.345-.823-13.441s-9.841-2.101-13.277 2.225c-3.447 4.325-3.081 10.346.814 13.441" fill="#0a9c49" fill-rule="evenodd"/><g fill="#fff"><path clip-path="url(#SVGID_2_)" d="m328.148 453.837-2.786 8.569 4.286 1.393"/><path clip-path="url(#SVGID_2_)" d="m328.148 453.837 2.786 8.569-4.286 1.393"/><path clip-path="url(#SVGID_2_)" d="m336.718 460.068h-9.01v4.497"/><path clip-path="url(#SVGID_2_)" d="m336.718 460.068-7.292 5.296-2.646-3.65"/><path clip-path="url(#SVGID_2_)" d="m319.577 460.068 7.293 5.296 2.646-3.65"/><path clip-path="url(#SVGID_2_)" d="m319.577 460.068h9.01v4.497"/><path clip-path="url(#SVGID_2_)" d="m333.443 470.137-2.786-8.569-4.286 1.393"/><path clip-path="url(#SVGID_2_)" d="m333.443 470.137-7.292-5.295 2.648-3.642"/><path clip-path="url(#SVGID_2_)" d="m322.853 470.137 7.29-5.295-2.648-3.642"/><path clip-path="url(#SVGID_2_)" d="m322.853 470.137 2.787-8.569 4.275 1.393"/><path clip-path="url(#SVGID_2_)" d="m346.737 542.216-2.785 8.569 4.285 1.393"/><path clip-path="url(#SVGID_2_)" d="m346.737 542.216 2.786 8.569-4.285 1.393"/><path clip-path="url(#SVGID_2_)" d="m355.306 548.438h-9.009v4.505"/><path clip-path="url(#SVGID_2_)" d="m355.306 548.438-7.29 5.295-2.646-3.641"/><path clip-path="url(#SVGID_2_)" d="m338.168 548.438 7.291 5.295 2.647-3.641"/><path clip-path="url(#SVGID_2_)" d="m338.168 548.438h9.009v4.505"/><path clip-path="url(#SVGID_2_)" d="m352.033 558.515-2.786-8.57-4.287 1.395"/><path clip-path="url(#SVGID_2_)" d="m352.033 558.515-7.292-5.304 2.647-3.64"/><path clip-path="url(#SVGID_2_)" d="m341.443 558.515 7.29-5.304-2.648-3.64"/><path clip-path="url(#SVGID_2_)" d="m341.443 558.515 2.786-8.57 4.284 1.395"/><path clip-path="url(#SVGID_2_)" d="m320.996 562.588-2.323 7.145 3.578 1.159"/><path clip-path="url(#SVGID_2_)" d="m320.996 562.588 2.32 7.145-3.566 1.159"/><path clip-path="url(#SVGID_2_)" d="m328.14 567.776h-7.512v3.757"/><path clip-path="url(#SVGID_2_)" d="m328.14 567.776-6.078 4.418-2.208-3.038"/><path clip-path="url(#SVGID_2_)" d="m313.858 567.776 6.07 4.418 2.208-3.038"/><path clip-path="url(#SVGID_2_)" d="m313.858 567.776h7.504v3.757"/><path clip-path="url(#SVGID_2_)" d="m325.41 576.176-2.321-7.145-3.568 1.157"/><path clip-path="url(#SVGID_2_)" d="m325.41 576.176-6.077-4.414 2.208-3.038"/><path clip-path="url(#SVGID_2_)" d="m316.58 576.176 6.077-4.414-2.209-3.038"/><path clip-path="url(#SVGID_2_)" d="m316.58 576.176 2.322-7.145 3.568 1.157"/><path clip-path="url(#SVGID_2_)" d="m367.331 534.062-1.328 4.083 2.037.666"/><path clip-path="url(#SVGID_2_)" d="m367.331 534.062 1.32 4.083-2.037.666"/><path clip-path="url(#SVGID_2_)" d="m371.413 537.025h-4.294v2.152"/><path clip-path="url(#SVGID_2_)" d="m371.413 537.025-3.472 2.525-1.263-1.735"/><path clip-path="url(#SVGID_2_)" d="m363.25 537.025 3.47 2.525 1.262-1.735"/><path clip-path="url(#SVGID_2_)" d="m363.25 537.025h4.292v2.152"/><path clip-path="url(#SVGID_2_)" d="m369.848 541.824-1.32-4.081-2.044.66"/><path clip-path="url(#SVGID_2_)" d="m369.848 541.824-3.47-2.526 1.262-1.735"/><path clip-path="url(#SVGID_2_)" d="m364.806 541.824 3.47-2.526-1.262-1.735"/><path clip-path="url(#SVGID_2_)" d="m364.806 541.824 1.328-4.081 2.036.66"/><path clip-path="url(#SVGID_2_)" d="m390.497 564.592-2.32 7.144 3.568 1.159"/><path clip-path="url(#SVGID_2_)" d="m390.497 564.592 2.316 7.144-3.568 1.159"/><path clip-path="url(#SVGID_2_)" d="m397.635 569.781h-7.51v3.756"/><path clip-path="url(#SVGID_2_)" d="m397.635 569.781-6.077 4.417-2.201-3.039"/><path clip-path="url(#SVGID_2_)" d="m383.355 569.781 6.078 4.417 2.198-3.039"/><path clip-path="url(#SVGID_2_)" d="m383.355 569.781h7.511v3.756"/><path clip-path="url(#SVGID_2_)" d="m394.907 578.173-2.324-7.137-3.568 1.158"/><path clip-path="url(#SVGID_2_)" d="m394.907 578.173-6.072-4.405 2.201-3.039"/><path clip-path="url(#SVGID_2_)" d="m386.083 578.173 6.069-4.405-2.198-3.039"/><path clip-path="url(#SVGID_2_)" d="m386.083 578.173 2.321-7.137 3.568 1.158"/><path clip-path="url(#SVGID_2_)" d="m384.201 586.972-1.857 5.716 2.86.929"/><path clip-path="url(#SVGID_2_)" d="m384.201 586.972 1.857 5.716-2.859.929"/><path clip-path="url(#SVGID_2_)" d="m389.912 591.125h-6.004v2.997"/><path clip-path="url(#SVGID_2_)" d="m389.912 591.125-4.855 3.526-1.768-2.427"/><path clip-path="url(#SVGID_2_)" d="m378.49 591.125 4.858 3.526 1.766-2.427"/><path clip-path="url(#SVGID_2_)" d="m378.49 591.125h6.004v2.997"/><path clip-path="url(#SVGID_2_)" d="m387.738 597.838-1.86-5.712-2.858.931"/><path clip-path="url(#SVGID_2_)" d="m387.738 597.838-4.864-3.529 1.769-2.426"/><path clip-path="url(#SVGID_2_)" d="m380.673 597.838 4.855-3.529-1.757-2.426"/><path clip-path="url(#SVGID_2_)" d="m380.673 597.838 1.859-5.712 2.851.931"/><path clip-path="url(#SVGID_2_)" d="m564.957 426.385-2.785 8.569 4.284 1.393"/><path clip-path="url(#SVGID_2_)" d="m564.957 426.385 2.786 8.569-4.284 1.393"/><path clip-path="url(#SVGID_2_)" d="m573.527 432.607h-9.009v4.505"/><path clip-path="url(#SVGID_2_)" d="m573.527 432.607-7.29 5.295-2.648-3.641"/><path clip-path="url(#SVGID_2_)" d="m556.387 432.607 7.292 5.295 2.647-3.641"/><path clip-path="url(#SVGID_2_)" d="m556.387 432.607h9.01v4.505"/><path clip-path="url(#SVGID_2_)" d="m570.253 442.685-2.786-8.569-4.285 1.393"/><path clip-path="url(#SVGID_2_)" d="m570.253 442.685-7.291-5.296 2.648-3.649"/><path clip-path="url(#SVGID_2_)" d="m559.663 442.685 7.282-5.296-2.647-3.649"/><path clip-path="url(#SVGID_2_)" d="m559.663 442.685 2.777-8.569 4.286 1.393"/><path clip-path="url(#SVGID_2_)" d="m647.038 565.383-2.785 8.563 4.284 1.391"/><path clip-path="url(#SVGID_2_)" d="m647.038 565.383 2.786 8.563-4.284 1.391"/><path clip-path="url(#SVGID_2_)" d="m655.608 571.606h-9.009v4.506"/><path clip-path="url(#SVGID_2_)" d="m655.608 571.606-7.291 5.294-2.647-3.64"/><path clip-path="url(#SVGID_2_)" d="m638.468 571.606 7.292 5.294 2.646-3.64"/><path clip-path="url(#SVGID_2_)" d="m638.468 571.606h9.011v4.506"/><path clip-path="url(#SVGID_2_)" d="m652.333 581.677-2.785-8.564-4.285 1.384"/><path clip-path="url(#SVGID_2_)" d="m652.333 581.677-7.29-5.297 2.647-3.642"/><path clip-path="url(#SVGID_2_)" d="m641.744 581.677 7.29-5.297-2.646-3.642"/><path clip-path="url(#SVGID_2_)" d="m641.744 581.677 2.785-8.564 4.285 1.384"/><path clip-path="url(#SVGID_2_)" d="m676.21 570.384-1.857 5.711 2.859.928"/><path clip-path="url(#SVGID_2_)" d="m676.21 570.384 1.857 5.711-2.859.928"/><path clip-path="url(#SVGID_2_)" d="m681.921 574.54h-6.005v2.995"/><path clip-path="url(#SVGID_2_)" d="m681.921 574.54-4.856 3.525-1.768-2.426"/><path clip-path="url(#SVGID_2_)" d="m670.5 574.54 4.854 3.525 1.769-2.426"/><path clip-path="url(#SVGID_2_)" d="m670.5 574.54h6.002v2.995"/><path clip-path="url(#SVGID_2_)" d="m679.737 581.251-1.849-5.711-2.859.93"/><path clip-path="url(#SVGID_2_)" d="m679.737 581.251-4.854-3.536 1.767-2.428"/><path clip-path="url(#SVGID_2_)" d="m672.683 581.251 4.855-3.536-1.768-2.428"/><path clip-path="url(#SVGID_2_)" d="m672.683 581.251 1.849-5.711 2.859.93"/><path clip-path="url(#SVGID_2_)" d="m655.616 585.471-2.321 7.146 3.576 1.155"/><path clip-path="url(#SVGID_2_)" d="m655.616 585.471 2.322 7.146-3.568 1.155"/><path clip-path="url(#SVGID_2_)" d="m662.76 590.659h-7.511v3.757"/><path clip-path="url(#SVGID_2_)" d="m662.76 590.659-6.076 4.416-2.208-3.038"/><path clip-path="url(#SVGID_2_)" d="m648.479 590.659 6.07 4.416 2.208-3.038"/><path clip-path="url(#SVGID_2_)" d="m648.479 590.659h7.504v3.757"/><path clip-path="url(#SVGID_2_)" d="m660.032 599.052-2.321-7.137-3.569 1.156"/><path clip-path="url(#SVGID_2_)" d="m660.032 599.052-6.078-4.409 2.209-3.038"/><path clip-path="url(#SVGID_2_)" d="m651.201 599.052 6.077-4.409-2.207-3.038"/><path clip-path="url(#SVGID_2_)" d="m651.201 599.052 2.322-7.137 3.577 1.156"/><path clip-path="url(#SVGID_2_)" d="m604.995 629.517-2.32 7.135 3.567 1.166"/><path clip-path="url(#SVGID_2_)" d="m604.995 629.517 2.323 7.135-3.576 1.166"/><path clip-path="url(#SVGID_2_)" d="m612.132 634.706h-7.501v3.748"/><path clip-path="url(#SVGID_2_)" d="m612.132 634.706-6.07 4.41-2.207-3.033"/><path clip-path="url(#SVGID_2_)" d="m597.852 634.706 6.077 4.41 2.207-3.033"/><path clip-path="url(#SVGID_2_)" d="m597.852 634.706h7.511v3.748"/><path clip-path="url(#SVGID_2_)" d="m609.411 643.099-2.321-7.146-3.569 1.165"/><path clip-path="url(#SVGID_2_)" d="m609.411 643.099-6.077-4.417 2.208-3.038"/><path clip-path="url(#SVGID_2_)" d="m600.581 643.099 6.076-4.417-2.206-3.038"/><path clip-path="url(#SVGID_2_)" d="m600.581 643.099 2.322-7.146 3.567 1.165"/><path clip-path="url(#SVGID_2_)" d="m604.711 652.181-1.857 5.71 2.86.927"/><path clip-path="url(#SVGID_2_)" d="m604.711 652.181 1.858 5.71-2.86.927"/><path clip-path="url(#SVGID_2_)" d="m610.422 656.335h-6.005v2.997"/><path clip-path="url(#SVGID_2_)" d="m610.422 656.335-4.857 3.526-1.767-2.425"/><path clip-path="url(#SVGID_2_)" d="m599 656.335 4.855 3.526 1.769-2.425"/><path clip-path="url(#SVGID_2_)" d="m599 656.335h6.003v2.997"/><path clip-path="url(#SVGID_2_)" d="m608.239 663.047-1.857-5.711-2.852.93"/><path clip-path="url(#SVGID_2_)" d="m608.239 663.047-4.855-3.525 1.759-2.438"/><path clip-path="url(#SVGID_2_)" d="m601.176 663.047 4.863-3.525-1.768-2.438"/><path clip-path="url(#SVGID_2_)" d="m601.176 663.047 1.857-5.711 2.86.93"/><path clip-path="url(#SVGID_2_)" d="m625.875 614.433-1.857 5.708 2.859.929"/><path clip-path="url(#SVGID_2_)" d="m625.875 614.433 1.856 5.708-2.858.929"/><path clip-path="url(#SVGID_2_)" d="m631.585 618.576h-6.004v3.006"/><path clip-path="url(#SVGID_2_)" d="m631.585 618.576-4.855 3.535-1.768-2.435"/><path clip-path="url(#SVGID_2_)" d="m620.165 618.576 4.855 3.535 1.767-2.435"/><path clip-path="url(#SVGID_2_)" d="m620.165 618.576h6.002v3.006"/><path clip-path="url(#SVGID_2_)" d="m629.401 625.3-1.856-5.721-2.852.931"/><path clip-path="url(#SVGID_2_)" d="m629.401 625.3-4.853-3.537 1.759-2.429"/><path clip-path="url(#SVGID_2_)" d="m622.348 625.3 4.855-3.537-1.768-2.429"/><path clip-path="url(#SVGID_2_)" d="m622.348 625.3 1.849-5.721 2.859.931"/><path clip-path="url(#SVGID_2_)" d="m642.745 602.343-2.322 7.142 3.578 1.158"/><path clip-path="url(#SVGID_2_)" d="m642.745 602.343 2.322 7.142-3.569 1.158"/><path clip-path="url(#SVGID_2_)" d="m649.89 607.531h-7.511v3.754"/><path clip-path="url(#SVGID_2_)" d="m649.89 607.531-6.078 4.415-2.208-3.039"/><path clip-path="url(#SVGID_2_)" d="m635.609 607.531 6.07 4.415 2.206-3.039"/><path clip-path="url(#SVGID_2_)" d="m635.609 607.531h7.503v3.754"/><path clip-path="url(#SVGID_2_)" d="m647.16 615.93-2.32-7.143-3.569 1.163"/><path clip-path="url(#SVGID_2_)" d="m647.16 615.93-6.076-4.415 2.208-3.038"/><path clip-path="url(#SVGID_2_)" d="m638.338 615.93 6.068-4.415-2.207-3.038"/><path clip-path="url(#SVGID_2_)" d="m638.338 615.93 2.314-7.143 3.576 1.163"/><path clip-path="url(#SVGID_2_)" d="m604.142 610.424-1.858 5.709 2.851.929"/><path clip-path="url(#SVGID_2_)" d="m604.142 610.424 1.848 5.709-2.851.929"/><path clip-path="url(#SVGID_2_)" d="m609.851 614.576h-6.003v2.998"/><path clip-path="url(#SVGID_2_)" d="m609.851 614.576-4.864 3.528-1.759-2.428"/><path clip-path="url(#SVGID_2_)" d="m598.422 614.576 4.863 3.528 1.769-2.428"/><path clip-path="url(#SVGID_2_)" d="m598.422 614.576h6.012v2.998"/><path clip-path="url(#SVGID_2_)" d="m607.668 621.292-1.856-5.713-2.852.931"/><path clip-path="url(#SVGID_2_)" d="m607.668 621.292-4.855-3.529 1.76-2.437"/><path clip-path="url(#SVGID_2_)" d="m600.605 621.292 4.864-3.529-1.769-2.437"/><path clip-path="url(#SVGID_2_)" d="m600.605 621.292 1.858-5.713 2.859.931"/><path clip-path="url(#SVGID_2_)" d="m419.671 501.671-2.324 7.143 3.57 1.157"/><path clip-path="url(#SVGID_2_)" d="m419.671 501.671 2.313 7.143-3.568 1.157"/><path clip-path="url(#SVGID_2_)" d="m426.805 506.862h-7.51v3.754"/><path clip-path="url(#SVGID_2_)" d="m426.805 506.862-6.069 4.413-2.205-3.039"/><path clip-path="url(#SVGID_2_)" d="m412.526 506.862 6.078 4.413 2.205-3.039"/><path clip-path="url(#SVGID_2_)" d="m412.526 506.862h7.51v3.754"/><path clip-path="url(#SVGID_2_)" d="m424.077 515.251-2.314-7.137-3.574 1.157"/><path clip-path="url(#SVGID_2_)" d="m424.077 515.251-6.068-4.407 2.206-3.036"/><path clip-path="url(#SVGID_2_)" d="m415.254 515.251 6.071-4.407-2.2-3.036"/><path clip-path="url(#SVGID_2_)" d="m415.254 515.251 2.324-7.137 3.568 1.157"/><path clip-path="url(#SVGID_2_)" d="m556.949 484.011-1.856 5.71 2.85.928"/><path clip-path="url(#SVGID_2_)" d="m556.949 484.011 1.859 5.71-2.859.928"/><path clip-path="url(#SVGID_2_)" d="m562.66 488.166h-6.003v2.996"/><path clip-path="url(#SVGID_2_)" d="m562.66 488.166-4.863 3.526-1.759-2.428"/><path clip-path="url(#SVGID_2_)" d="m551.238 488.166 4.856 3.526 1.768-2.428"/><path clip-path="url(#SVGID_2_)" d="m551.238 488.166h6.005v2.996"/><path clip-path="url(#SVGID_2_)" d="m560.478 494.876-1.859-5.709-2.85.927"/><path clip-path="url(#SVGID_2_)" d="m560.478 494.876-4.857-3.526 1.76-2.436"/><path clip-path="url(#SVGID_2_)" d="m553.415 494.876 4.863-3.526-1.768-2.436"/><path clip-path="url(#SVGID_2_)" d="m553.415 494.876 1.857-5.709 2.859.927"/><path clip-path="url(#SVGID_2_)" d="m499.747 585.976-2.786 8.564 4.285 1.391"/><path clip-path="url(#SVGID_2_)" d="m499.747 585.976 2.786 8.564-4.284 1.391"/><path clip-path="url(#SVGID_2_)" d="m508.318 592.199h-9.01v4.508"/><path clip-path="url(#SVGID_2_)" d="m508.318 592.199-7.292 5.295-2.648-3.648"/><path clip-path="url(#SVGID_2_)" d="m491.178 592.199 7.29 5.295 2.648-3.648"/><path clip-path="url(#SVGID_2_)" d="m491.178 592.199h9.009v4.508"/><path clip-path="url(#SVGID_2_)" d="m505.042 602.271-2.786-8.573-4.284 1.393"/><path clip-path="url(#SVGID_2_)" d="m505.042 602.271-7.291-5.298 2.648-3.642"/><path clip-path="url(#SVGID_2_)" d="m494.453 602.271 7.289-5.298-2.647-3.642"/><path clip-path="url(#SVGID_2_)" d="m494.453 602.271 2.785-8.573 4.285 1.393"/><path clip-path="url(#SVGID_2_)" d="m524.056 545.717-2.322 7.136 3.576 1.166"/><path clip-path="url(#SVGID_2_)" d="m524.056 545.717 2.322 7.136-3.568 1.166"/><path clip-path="url(#SVGID_2_)" d="m531.199 550.909h-7.511v3.753"/><path clip-path="url(#SVGID_2_)" d="m531.199 550.909-6.076 4.405-2.208-3.031"/><path clip-path="url(#SVGID_2_)" d="m516.92 550.909 6.068 4.405 2.208-3.031"/><path clip-path="url(#SVGID_2_)" d="m516.92 550.909h7.503v3.753"/><path clip-path="url(#SVGID_2_)" d="m528.471 559.298-2.323-7.138-3.567 1.156"/><path clip-path="url(#SVGID_2_)" d="m528.471 559.298-6.077-4.416 2.207-3.03"/><path clip-path="url(#SVGID_2_)" d="m519.648 559.298 6.07-4.416-2.208-3.03"/><path clip-path="url(#SVGID_2_)" d="m519.648 559.298 2.313-7.138 3.577 1.156"/><path clip-path="url(#SVGID_2_)" d="m499.747 526.845-2.322 7.134 3.57 1.165"/><path clip-path="url(#SVGID_2_)" d="m499.747 526.845 2.322 7.134-3.569 1.165"/><path clip-path="url(#SVGID_2_)" d="m506.884 532.032h-7.503v3.747"/><path clip-path="url(#SVGID_2_)" d="m506.884 532.032-6.069 4.406-2.208-3.031"/><path clip-path="url(#SVGID_2_)" d="m492.611 532.032 6.069 4.406 2.207-3.031"/><path clip-path="url(#SVGID_2_)" d="m492.611 532.032h7.503v3.747"/><path clip-path="url(#SVGID_2_)" d="m504.162 540.422-2.321-7.136-3.568 1.157"/><path clip-path="url(#SVGID_2_)" d="m504.162 540.422-6.077-4.414 2.208-3.03"/><path clip-path="url(#SVGID_2_)" d="m495.332 540.422 6.077-4.414-2.208-3.03"/><path clip-path="url(#SVGID_2_)" d="m495.332 540.422 2.321-7.136 3.569 1.157"/><path clip-path="url(#SVGID_2_)" d="m478.584 547.217-1.857 5.709 2.858.929"/><path clip-path="url(#SVGID_2_)" d="m478.584 547.217 1.857 5.709-2.859.929"/><path clip-path="url(#SVGID_2_)" d="m484.294 551.371h-6.004v2.998"/><path clip-path="url(#SVGID_2_)" d="m484.294 551.371-4.854 3.526-1.769-2.423"/><path clip-path="url(#SVGID_2_)" d="m472.872 551.371 4.855 3.526 1.769-2.423"/><path clip-path="url(#SVGID_2_)" d="m472.872 551.371h6.005v2.998"/><path clip-path="url(#SVGID_2_)" d="m482.111 558.084-1.859-5.711-2.85.929"/><path clip-path="url(#SVGID_2_)" d="m482.111 558.084-4.856-3.526 1.767-2.436"/><path clip-path="url(#SVGID_2_)" d="m475.056 558.084 4.855-3.526-1.766-2.436"/><path clip-path="url(#SVGID_2_)" d="m475.056 558.084 1.849-5.711 2.86.929"/><path clip-path="url(#SVGID_2_)" d="m489.165 563.519-1.328 4.082 2.045.665"/><path clip-path="url(#SVGID_2_)" d="m489.165 563.519 1.329 4.082-2.045.665"/><path clip-path="url(#SVGID_2_)" d="m493.247 566.482h-4.293v2.153"/><path clip-path="url(#SVGID_2_)" d="m493.247 566.482-3.471 2.526-1.262-1.737"/><path clip-path="url(#SVGID_2_)" d="m485.084 566.482 3.47 2.526 1.263-1.737"/><path clip-path="url(#SVGID_2_)" d="m485.084 566.482h4.293v2.153"/><path clip-path="url(#SVGID_2_)" d="m491.69 571.279-1.327-4.08-2.045.668"/><path clip-path="url(#SVGID_2_)" d="m491.69 571.279-3.478-2.515 1.263-1.736"/><path clip-path="url(#SVGID_2_)" d="m486.64 571.279 3.47-2.515-1.255-1.736"/><path clip-path="url(#SVGID_2_)" d="m486.64 571.279 1.328-4.08 2.045.668"/><path clip-path="url(#SVGID_2_)" d="m562.668 634.665-2.321 7.139 3.568 1.163"/><path clip-path="url(#SVGID_2_)" d="m562.668 634.665 2.322 7.139-3.576 1.163"/><path clip-path="url(#SVGID_2_)" d="m569.805 639.854h-7.502v3.748"/><path clip-path="url(#SVGID_2_)" d="m569.805 639.854-6.071 4.408-2.207-3.038"/><path clip-path="url(#SVGID_2_)" d="m555.523 639.854 6.08 4.408 2.206-3.038"/><path clip-path="url(#SVGID_2_)" d="m555.523 639.854h7.512v3.748"/><path clip-path="url(#SVGID_2_)" d="m567.083 648.245-2.32-7.141-3.57 1.162"/><path clip-path="url(#SVGID_2_)" d="m567.083 648.245-6.075-4.415 2.205-3.038"/><path clip-path="url(#SVGID_2_)" d="m558.254 648.245 6.076-4.415-2.207-3.038"/><path clip-path="url(#SVGID_2_)" d="m558.254 648.245 2.321-7.141 3.569 1.162"/><path clip-path="url(#SVGID_2_)" d="m580.688 617.574-1.858 5.713 2.852.928"/><path clip-path="url(#SVGID_2_)" d="m580.688 617.574 1.856 5.713-2.858.928"/><path clip-path="url(#SVGID_2_)" d="m586.398 621.724h-6.004v3.003"/><path clip-path="url(#SVGID_2_)" d="m586.398 621.724-4.863 3.534-1.76-2.428"/><path clip-path="url(#SVGID_2_)" d="m574.978 621.724 4.854 3.534 1.769-2.428"/><path clip-path="url(#SVGID_2_)" d="m574.978 621.724h6.002v3.003"/><path clip-path="url(#SVGID_2_)" d="m584.215 628.44-1.858-5.709-2.85.92"/><path clip-path="url(#SVGID_2_)" d="m584.215 628.44-4.854-3.534 1.759-2.427"/><path clip-path="url(#SVGID_2_)" d="m577.152 628.44 4.864-3.534-1.768-2.427"/><path clip-path="url(#SVGID_2_)" d="m577.152 628.44 1.858-5.709 2.859.92"/><path clip-path="url(#SVGID_2_)" d="m546.084 612.429-1.858 5.708 2.85.928"/><path clip-path="url(#SVGID_2_)" d="m546.084 612.429 1.849 5.708-2.852.928"/><path clip-path="url(#SVGID_2_)" d="m551.793 616.582h-6.003v2.997"/><path clip-path="url(#SVGID_2_)" d="m551.793 616.582-4.863 3.527-1.76-2.427"/><path clip-path="url(#SVGID_2_)" d="m540.365 616.582 4.863 3.527 1.767-2.427"/><path clip-path="url(#SVGID_2_)" d="m540.365 616.582h6.012v2.997"/><path clip-path="url(#SVGID_2_)" d="m549.61 623.295-1.858-5.713-2.851.931"/><path clip-path="url(#SVGID_2_)" d="m549.61 623.295-4.864-3.538 1.769-2.427"/><path clip-path="url(#SVGID_2_)" d="m542.547 623.295 4.863-3.538-1.766-2.427"/><path clip-path="url(#SVGID_2_)" d="m542.547 623.295 1.857-5.713 2.861.931"/><path clip-path="url(#SVGID_2_)" d="m415.377 603.133-2.786 8.568 4.286 1.395"/><path clip-path="url(#SVGID_2_)" d="m415.377 603.133 2.786 8.568-4.285 1.395"/><path clip-path="url(#SVGID_2_)" d="m423.946 609.355h-9.008v4.505"/><path clip-path="url(#SVGID_2_)" d="m423.946 609.355-7.29 5.295-2.647-3.641"/><path clip-path="url(#SVGID_2_)" d="m406.808 609.355 7.292 5.295 2.646-3.641"/><path clip-path="url(#SVGID_2_)" d="m406.808 609.355h9.009v4.505"/><path clip-path="url(#SVGID_2_)" d="m420.672 619.433-2.786-8.569-4.285 1.393"/><path clip-path="url(#SVGID_2_)" d="m420.672 619.433-7.291-5.296 2.646-3.65"/><path clip-path="url(#SVGID_2_)" d="m410.083 619.433 7.29-5.296-2.648-3.65"/><path clip-path="url(#SVGID_2_)" d="m410.083 619.433 2.785-8.569 4.285 1.393"/><path clip-path="url(#SVGID_2_)" d="m499.747 662.048-.929 2.856 1.427.465"/><path clip-path="url(#SVGID_2_)" d="m499.747 662.048.929 2.856-1.426.465"/><path clip-path="url(#SVGID_2_)" d="m502.606 664.123h-3.006v1.498"/><path clip-path="url(#SVGID_2_)" d="m502.606 664.123-2.436 1.767-.878-1.213"/><path clip-path="url(#SVGID_2_)" d="m496.889 664.123 2.436 1.767.879-1.213"/><path clip-path="url(#SVGID_2_)" d="m496.889 664.123h3.006v1.498"/><path clip-path="url(#SVGID_2_)" d="m501.516 667.479-.93-2.851-1.434.466"/><path clip-path="url(#SVGID_2_)" d="m501.516 667.479-2.436-1.76.887-1.222"/><path clip-path="url(#SVGID_2_)" d="m497.979 667.479 2.437-1.76-.888-1.222"/><path clip-path="url(#SVGID_2_)" d="m497.979 667.479.929-2.851 1.434.466"/></g></g></g></svg>